<?xml version="1.0" encoding="UTF-8" standalone="no"?>
<svg
   xmlns:dc="http://purl.org/dc/elements/1.1/"
   xmlns:cc="http://creativecommons.org/ns#"
   xmlns:rdf="http://www.w3.org/1999/02/22-rdf-syntax-ns#"
   xmlns:svg="http://www.w3.org/2000/svg"
   xmlns="http://www.w3.org/2000/svg"
   xml:space="preserve"
   style="enable-background:new 0 0 65.19 18.56;"
   viewBox="0 0 65.19 18.56"
   y="0px"
   x="0px"
   id="Layer_1"
   version="1.1"><metadata
   id="metadata102"><rdf:RDF><cc:Work
       rdf:about=""><dc:format>image/svg+xml</dc:format><dc:type
         rdf:resource="http://purl.org/dc/dcmitype/StillImage" /><dc:title></dc:title></cc:Work></rdf:RDF></metadata><defs
   id="defs100">
	
	
	

		
		
		
		
		
		
		
	</defs>
<path
   d="m 13.71,2.61 c 1.55,1.55 2.33,3.45 2.33,5.7 0,2.25 -0.76,4.13 -2.29,5.64 -1.62,1.59 -3.53,2.39 -5.74,2.39 -2.18,0 -4.06,-0.79 -5.64,-2.37 C 0.79,12.4 0,10.51 0,8.31 0,6.11 0.79,4.21 2.37,2.61 3.91,1.06 5.79,0.28 8.01,0.28 c 2.25,0 4.15,0.78 5.7,2.33 z M 3.42,3.66 C 2.1,4.98 1.45,6.54 1.45,8.32 c 0,1.78 0.65,3.32 1.95,4.62 1.3,1.3 2.85,1.95 4.64,1.95 1.79,0 3.35,-0.66 4.68,-1.97 1.26,-1.22 1.89,-2.75 1.89,-4.6 0,-1.83 -0.64,-3.39 -1.92,-4.67 C 11.41,2.37 9.86,1.73 8.04,1.73 6.21,1.73 4.67,2.37 3.42,3.66 Z M 6.87,7.53 C 6.67,7.09 6.37,6.87 5.97,6.87 5.26,6.87 4.91,7.35 4.91,8.3 c 0,0.95 0.35,1.43 1.06,1.43 0.47,0 0.8,-0.23 1,-0.7 L 7.95,9.55 C 7.48,10.38 6.78,10.8 5.84,10.8 5.12,10.8 4.54,10.58 4.11,10.14 3.68,9.7 3.46,9.09 3.46,8.31 3.46,7.55 3.68,6.94 4.13,6.49 4.58,6.04 5.14,5.82 5.8,5.82 c 0.99,0 1.7,0.39 2.13,1.17 z m 4.62,0 c -0.2,-0.44 -0.5,-0.66 -0.88,-0.66 -0.72,0 -1.08,0.48 -1.08,1.43 0,0.95 0.36,1.43 1.08,1.43 0.47,0 0.8,-0.23 0.98,-0.7 l 1,0.52 c -0.47,0.83 -1.17,1.25 -2.1,1.25 -0.72,0 -1.3,-0.22 -1.73,-0.66 C 8.32,9.7 8.11,9.09 8.11,8.31 c 0,-0.76 0.22,-1.37 0.66,-1.82 0.44,-0.45 1,-0.67 1.68,-0.67 0.99,0 1.69,0.39 2.12,1.17 z"
   id="path5708_7_" /><path
   id="path48"
   d="m 28.73,16.63 c 0.15,-0.07 0.27,-0.17 0.35,-0.28 0.08,-0.11 0.12,-0.26 0.12,-0.43 0,-0.16 -0.03,-0.29 -0.08,-0.4 -0.05,-0.11 -0.13,-0.19 -0.22,-0.26 -0.1,-0.07 -0.21,-0.11 -0.34,-0.14 -0.13,-0.03 -0.28,-0.04 -0.44,-0.04 h -1.6 v 3.4 h 1.65 c 0.15,0 0.3,-0.02 0.45,-0.06 0.14,-0.04 0.27,-0.1 0.39,-0.18 0.11,-0.08 0.2,-0.18 0.27,-0.31 0.07,-0.13 0.1,-0.27 0.1,-0.45 0,-0.21 -0.05,-0.39 -0.16,-0.55 -0.12,-0.13 -0.28,-0.24 -0.49,-0.3 z m -1.48,-0.97 h 0.7 c 0.07,0 0.13,0.01 0.19,0.02 0.06,0.01 0.12,0.03 0.16,0.06 0.05,0.03 0.09,0.07 0.11,0.12 0.03,0.05 0.04,0.12 0.04,0.19 0,0.14 -0.04,0.25 -0.13,0.31 -0.09,0.06 -0.2,0.09 -0.33,0.09 h -0.76 v -0.79 z m 1.32,2.01 c -0.03,0.06 -0.07,0.1 -0.12,0.14 -0.05,0.03 -0.11,0.06 -0.18,0.07 -0.07,0.01 -0.14,0.02 -0.21,0.02 h -0.8 v -0.93 h 0.82 c 0.16,0 0.29,0.04 0.39,0.11 0.1,0.07 0.15,0.2 0.15,0.37 -0.01,0.09 -0.02,0.16 -0.05,0.22 z" /><polygon
   id="polygon50"
   points="30.74,18.48 31.49,18.48 31.49,17.18 32.75,15.08 31.92,15.08 31.13,16.42 30.33,15.08 29.49,15.08 30.74,17.16 " /><g
   id="g70">
			<g
   id="g68">
				<path
   id="path66"
   d="M 63.46,1.73 C 62.31,0.58 60.9,0 59.23,0 c -1.65,0 -3.05,0.58 -4.19,1.73 -1.17,1.19 -1.76,2.6 -1.76,4.23 0,1.63 0.59,3.03 1.76,4.2 1.17,1.17 2.57,1.76 4.19,1.76 1.64,0 3.06,-0.59 4.26,-1.77 1.13,-1.12 1.7,-2.52 1.7,-4.18 0,-1.68 -0.58,-3.09 -1.73,-4.24 z m -0.74,7.63 c -0.98,0.97 -2.14,1.46 -3.47,1.46 -1.33,0 -2.48,-0.48 -3.44,-1.44 -0.96,-0.96 -1.45,-2.1 -1.45,-3.42 0,-1.32 0.49,-2.47 1.46,-3.45 0.93,-0.95 2.08,-1.43 3.43,-1.43 1.35,0 2.5,0.48 3.44,1.43 0.95,0.94 1.43,2.09 1.43,3.45 0,1.36 -0.47,2.5 -1.4,3.4 z" />
			</g>
		</g><g
   id="g78">
			<path
   id="path72"
   d="m 29.83,3.77 c 0.46,0 0.83,-0.37 0.83,-0.83 0,-0.46 -0.37,-0.83 -0.83,-0.83 -0.46,0 -0.83,0.37 -0.83,0.83 0,0.46 0.37,0.83 0.83,0.83 z"
   style="clip-rule:evenodd;fill-rule:evenodd" />
			<path
   id="path74"
   d="m 31.05,4.1 h -2.44 c -0.21,0 -0.38,0.17 -0.38,0.38 v 2.44 h 0.68 V 9.8 h 1.85 V 6.92 h 0.68 V 4.48 C 31.43,4.27 31.26,4.1 31.05,4.1 Z"
   style="clip-rule:evenodd;fill-rule:evenodd" />
			<path
   id="path76"
   d="M 34.06,1.73 C 32.9,0.58 31.49,0 29.82,0 c -1.65,0 -3.05,0.58 -4.19,1.73 -1.17,1.19 -1.76,2.6 -1.76,4.23 0,1.63 0.59,3.03 1.76,4.2 1.17,1.17 2.57,1.76 4.19,1.76 1.64,0 3.06,-0.59 4.26,-1.77 1.13,-1.12 1.7,-2.52 1.7,-4.18 0,-1.68 -0.57,-3.09 -1.72,-4.24 z m -0.75,7.63 c -0.98,0.97 -2.14,1.46 -3.47,1.46 -1.33,0 -2.48,-0.48 -3.44,-1.44 -0.96,-0.96 -1.45,-2.1 -1.45,-3.42 0,-1.32 0.49,-2.47 1.46,-3.45 0.93,-0.95 2.08,-1.43 3.43,-1.43 1.35,0 2.5,0.48 3.44,1.43 0.95,0.94 1.43,2.09 1.43,3.45 0,1.36 -0.47,2.5 -1.4,3.4 z"
   style="clip-rule:evenodd;fill-rule:evenodd" />
		</g><g
   id="g84">
			<g
   id="g82">
				<polygon
   id="polygon80"
   points="55.85,18.48 56.55,18.48 56.55,16.2 56.56,16.2 57.98,18.48 58.73,18.48 58.73,15.08 58.03,15.08 58.03,17.36 58.02,17.36 56.6,15.08 55.85,15.08 " />
			</g>
		</g><g
   id="g90">
		<path
   d="m 62.49,16 c -0.08,-0.22 -0.19,-0.4 -0.33,-0.54 -0.14,-0.14 -0.31,-0.25 -0.51,-0.32 -0.2,-0.07 -0.41,-0.11 -0.63,-0.11 v 0 H 59.5 v 3.51 h 1.51 c 0.27,0 0.5,-0.05 0.7,-0.14 0.2,-0.09 0.36,-0.21 0.5,-0.37 0.13,-0.16 0.23,-0.34 0.3,-0.56 0.07,-0.22 0.1,-0.45 0.1,-0.71 0,-0.29 -0.04,-0.55 -0.12,-0.76 z m -0.73,1.32 c -0.05,0.13 -0.12,0.24 -0.2,0.33 -0.08,0.08 -0.18,0.14 -0.28,0.18 -0.1,0.04 -0.21,0.05 -0.32,0.05 h -0.69 v -2.21 h 0.55 c 0.19,0 0.35,0.03 0.48,0.08 0.13,0.05 0.23,0.13 0.31,0.23 0.08,0.1 0.14,0.22 0.17,0.37 0.03,0.14 0.05,0.3 0.05,0.48 0.01,0.19 -0.02,0.36 -0.07,0.49 z"
   id="path88" />
	</g><g
   id="g6398_4_"
   transform="translate(-23.9521,-87.92102)">
		<g
   id="g6402_4_">
			<path
   id="path6404_4_"
   d="m 85.42,92.43 h -4.46 v 1.06 h 4.46 z m 0,1.97 h -4.46 v 1.06 h 4.46 z" />
		</g>
	</g>
<g
   transform="translate(-0.00500218)"
   id="g36"><g
     id="g33"><polygon
       id="polygon29"
       points="43.83,17.36 43.82,17.36 42.4,15.08 41.66,15.08 41.66,18.48 42.36,18.48 42.36,16.2 42.37,16.2 43.78,18.48 44.53,18.48 44.53,15.08 43.83,15.08 " /><path
       id="path31"
       d="m 47.49,17.17 c -0.03,0.23 -0.11,0.41 -0.24,0.55 -0.13,0.14 -0.31,0.21 -0.54,0.21 -0.17,0 -0.31,-0.03 -0.43,-0.1 -0.12,-0.07 -0.21,-0.15 -0.29,-0.26 -0.07,-0.11 -0.13,-0.23 -0.16,-0.36 -0.03,-0.13 -0.05,-0.27 -0.05,-0.42 0,-0.15 0.02,-0.29 0.05,-0.43 0.03,-0.14 0.09,-0.26 0.16,-0.37 0.07,-0.11 0.17,-0.2 0.29,-0.26 0.12,-0.07 0.26,-0.1 0.43,-0.1 0.09,0 0.18,0.01 0.26,0.05 0.08,0.03 0.16,0.07 0.23,0.13 0.07,0.06 0.12,0.12 0.17,0.19 0.04,0.07 0.07,0.15 0.09,0.24 h 0.72 C 48.16,16.04 48.1,15.87 48.02,15.72 47.93,15.57 47.83,15.44 47.69,15.34 47.56,15.24 47.41,15.16 47.24,15.1 47.08,15.02 46.9,15 46.71,15 c -0.26,0 -0.49,0.05 -0.7,0.14 -0.21,0.09 -0.38,0.22 -0.53,0.38 -0.14,0.16 -0.25,0.35 -0.33,0.57 -0.08,0.22 -0.11,0.45 -0.11,0.71 0,0.25 0.04,0.48 0.11,0.69 0.08,0.21 0.19,0.4 0.33,0.56 0.14,0.16 0.32,0.28 0.53,0.37 0.21,0.09 0.44,0.14 0.7,0.14 0.21,0 0.4,-0.03 0.58,-0.1 0.17,-0.06 0.33,-0.16 0.46,-0.28 0.13,-0.12 0.24,-0.27 0.31,-0.44 0.08,-0.17 0.13,-0.36 0.15,-0.58 h -0.72 z" /></g><path
     d="m 44.53,0 c 1.67,0 3.08,0.58 4.23,1.73 1.15,1.15 1.73,2.56 1.73,4.23 0,1.67 -0.57,3.06 -1.7,4.18 -1.2,1.18 -2.62,1.77 -4.26,1.77 -1.62,0 -3.02,-0.59 -4.19,-1.76 -1.17,-1.17 -1.76,-2.57 -1.76,-4.2 0,-1.63 0.59,-3.04 1.76,-4.23 C 41.48,0.58 42.88,0 44.53,0 Z m -4.61,4.36 c -0.18,0.5 -0.27,1.04 -0.27,1.6 0,1.32 0.48,2.46 1.45,3.42 0.96,0.96 2.11,1.44 3.44,1.44 1.33,0 2.49,-0.49 3.47,-1.46 0.33,-0.32 0.6,-0.67 0.81,-1.04 l -2.24,-1 C 46.43,8.08 45.75,8.59 44.94,8.65 V 9.57 H 44.26 V 8.65 C 43.59,8.64 42.95,8.37 42.45,7.94 l 0.82,-0.83 c 0.4,0.37 0.79,0.54 1.33,0.54 0.35,0 0.74,-0.14 0.74,-0.59 0,-0.16 -0.06,-0.27 -0.16,-0.36 L 44.61,6.45 43.9,6.13 C 43.55,5.97 43.25,5.84 42.96,5.71 Z m 4.62,-3.29 c -1.35,0 -2.49,0.48 -3.43,1.43 -0.25,0.26 -0.48,0.52 -0.66,0.8 l 2.28,1.01 C 42.94,3.68 43.54,3.3 44.26,3.25 V 2.34 h 0.68 v 0.92 c 0.47,0.02 0.99,0.15 1.5,0.55 l -0.78,0.8 c -0.29,-0.2 -0.65,-0.35 -1.02,-0.35 -0.3,0 -0.71,0.09 -0.71,0.46 0,0.06 0.02,0.11 0.05,0.15 l 0.76,0.34 0.52,0.23 c 0.33,0.15 0.64,0.29 0.96,0.43 l 3.05,1.36 c 0.1,-0.4 0.15,-0.82 0.15,-1.27 0,-1.36 -0.48,-2.51 -1.43,-3.45 -0.95,-0.96 -2.1,-1.44 -3.45,-1.44 z"
     id="path6365_1_" /></g></svg>
