<?xml version="1.0" encoding="utf-8"?>
<!-- Generator: Adobe Illustrator 24.0.0, SVG Export Plug-In . SVG Version: 6.00 Build 0)  -->
<svg version="1.1" id="Layer_1" xmlns="http://www.w3.org/2000/svg" xmlns:xlink="http://www.w3.org/1999/xlink" x="0px" y="0px"
	 viewBox="0 0 58.45 18.56" style="enable-background:new 0 0 58.45 18.56;" xml:space="preserve">
<g>
	<path id="path5708_9_" d="M13.71,2.61c1.55,1.55,2.33,3.45,2.33,5.7c0,2.25-0.76,4.13-2.29,5.64c-1.62,1.59-3.53,2.39-5.74,2.39
		c-2.18,0-4.06-0.79-5.64-2.37C0.79,12.4,0,10.51,0,8.31c0-2.2,0.79-4.1,2.37-5.7c1.54-1.55,3.42-2.33,5.64-2.33
		C10.26,0.28,12.16,1.06,13.71,2.61z M3.42,3.66C2.1,4.98,1.45,6.54,1.45,8.32c0,1.78,0.65,3.32,1.95,4.62
		c1.3,1.3,2.85,1.95,4.64,1.95c1.79,0,3.35-0.66,4.68-1.97c1.26-1.22,1.89-2.75,1.89-4.6c0-1.83-0.64-3.39-1.92-4.67
		c-1.28-1.28-2.83-1.92-4.65-1.92C6.21,1.73,4.67,2.37,3.42,3.66z M6.87,7.53c-0.2-0.44-0.5-0.66-0.9-0.66
		c-0.71,0-1.06,0.48-1.06,1.43c0,0.95,0.35,1.43,1.06,1.43c0.47,0,0.8-0.23,1-0.7l0.98,0.52c-0.47,0.83-1.17,1.25-2.11,1.25
		c-0.72,0-1.3-0.22-1.73-0.66C3.68,9.7,3.46,9.09,3.46,8.31c0-0.76,0.22-1.37,0.67-1.82c0.45-0.45,1.01-0.67,1.67-0.67
		c0.99,0,1.7,0.39,2.13,1.17L6.87,7.53z M11.49,7.53c-0.2-0.44-0.5-0.66-0.88-0.66c-0.72,0-1.08,0.48-1.08,1.43
		c0,0.95,0.36,1.43,1.08,1.43c0.47,0,0.8-0.23,0.98-0.7l1,0.52c-0.47,0.83-1.17,1.25-2.1,1.25c-0.72,0-1.3-0.22-1.73-0.66
		C8.32,9.7,8.11,9.09,8.11,8.31c0-0.76,0.22-1.37,0.66-1.82c0.44-0.45,1-0.67,1.68-0.67c0.99,0,1.69,0.39,2.12,1.17L11.49,7.53z"/>
	<path d="M30.73,16.63c0.15-0.07,0.27-0.17,0.35-0.28c0.08-0.11,0.12-0.26,0.12-0.43c0-0.16-0.03-0.29-0.08-0.4
		c-0.05-0.11-0.13-0.19-0.22-0.26c-0.1-0.07-0.21-0.11-0.34-0.14c-0.13-0.03-0.28-0.04-0.44-0.04h-1.6v3.4h1.65
		c0.15,0,0.3-0.02,0.45-0.06c0.14-0.04,0.27-0.1,0.39-0.18c0.11-0.08,0.2-0.18,0.27-0.31c0.07-0.13,0.1-0.27,0.1-0.45
		c0-0.21-0.05-0.39-0.16-0.55C31.1,16.8,30.94,16.69,30.73,16.63z M29.25,15.66h0.7c0.07,0,0.13,0.01,0.19,0.02
		c0.06,0.01,0.12,0.03,0.16,0.06c0.05,0.03,0.09,0.07,0.11,0.12c0.03,0.05,0.04,0.12,0.04,0.19c0,0.14-0.04,0.25-0.13,0.31
		c-0.09,0.06-0.2,0.09-0.33,0.09h-0.76V15.66z M30.57,17.67c-0.03,0.06-0.07,0.1-0.12,0.14c-0.05,0.03-0.11,0.06-0.18,0.07
		c-0.07,0.01-0.14,0.02-0.21,0.02h-0.8v-0.93h0.82c0.16,0,0.29,0.04,0.39,0.11c0.1,0.07,0.15,0.2,0.15,0.37
		C30.61,17.54,30.6,17.61,30.57,17.67z"/>
	<polygon points="33.13,16.42 32.33,15.08 31.49,15.08 32.74,17.16 32.74,18.48 33.49,18.48 33.49,17.18 34.75,15.08 33.92,15.08 	
		"/>
	<g>
		<path style="fill-rule:evenodd;clip-rule:evenodd;" d="M31.83,3.77c0.46,0,0.83-0.37,0.83-0.83c0-0.46-0.37-0.83-0.83-0.83
			C31.37,2.11,31,2.48,31,2.94C31,3.4,31.37,3.77,31.83,3.77z"/>
		<path style="fill-rule:evenodd;clip-rule:evenodd;" d="M33.05,4.1h-2.44c-0.21,0-0.38,0.17-0.38,0.38v2.44h0.68V9.8h1.85V6.92
			h0.68V4.48C33.43,4.27,33.26,4.1,33.05,4.1z"/>
		<path style="fill-rule:evenodd;clip-rule:evenodd;" d="M36.06,1.73C34.9,0.58,33.49,0,31.82,0c-1.65,0-3.05,0.58-4.19,1.73
			c-1.17,1.19-1.76,2.6-1.76,4.23c0,1.63,0.59,3.03,1.76,4.2c1.17,1.17,2.57,1.76,4.19,1.76c1.64,0,3.06-0.59,4.26-1.77
			c1.13-1.12,1.7-2.52,1.7-4.18C37.78,4.29,37.21,2.88,36.06,1.73z M35.31,9.36c-0.98,0.97-2.14,1.46-3.47,1.46
			c-1.33,0-2.48-0.48-3.44-1.44c-0.96-0.96-1.45-2.1-1.45-3.42c0-1.32,0.49-2.47,1.46-3.45c0.93-0.95,2.08-1.43,3.43-1.43
			c1.35,0,2.5,0.48,3.44,1.43c0.95,0.94,1.43,2.09,1.43,3.45C36.71,7.32,36.24,8.46,35.31,9.36z"/>
	</g>
	<g>
		<g>
			<polygon points="51.78,17.36 51.78,17.36 50.36,15.08 49.61,15.08 49.61,18.48 50.31,18.48 50.31,16.2 50.32,16.2 51.74,18.48 
				52.49,18.48 52.49,15.08 51.78,15.08 			"/>
			<path d="M55.44,17.17c-0.03,0.23-0.11,0.41-0.24,0.55c-0.13,0.14-0.31,0.21-0.54,0.21c-0.17,0-0.31-0.03-0.43-0.1
				c-0.12-0.07-0.21-0.15-0.29-0.26c-0.07-0.11-0.13-0.23-0.16-0.36c-0.03-0.13-0.05-0.27-0.05-0.42c0-0.15,0.02-0.29,0.05-0.43
				c0.03-0.14,0.09-0.26,0.16-0.37c0.07-0.11,0.17-0.2,0.29-0.26c0.12-0.07,0.26-0.1,0.43-0.1c0.09,0,0.18,0.01,0.26,0.05
				c0.08,0.03,0.16,0.07,0.23,0.13s0.12,0.12,0.17,0.19c0.04,0.07,0.07,0.15,0.09,0.24h0.72c-0.02-0.2-0.08-0.37-0.16-0.52
				c-0.09-0.15-0.19-0.28-0.33-0.38c-0.13-0.1-0.28-0.18-0.45-0.24C55.03,15.02,54.86,15,54.67,15c-0.26,0-0.49,0.05-0.7,0.14
				c-0.21,0.09-0.38,0.22-0.53,0.38c-0.14,0.16-0.25,0.35-0.33,0.57c-0.08,0.22-0.11,0.45-0.11,0.71c0,0.25,0.04,0.48,0.11,0.69
				c0.08,0.21,0.19,0.4,0.33,0.56c0.14,0.16,0.32,0.28,0.53,0.37c0.21,0.09,0.44,0.14,0.7,0.14c0.21,0,0.4-0.03,0.58-0.1
				c0.17-0.06,0.33-0.16,0.46-0.28c0.13-0.12,0.24-0.27,0.31-0.44c0.08-0.17,0.13-0.36,0.15-0.58H55.44z"/>
		</g>
		<path id="path6365_2_" d="M52.48,0c1.67,0,3.08,0.58,4.23,1.73c1.15,1.15,1.73,2.56,1.73,4.23s-0.57,3.06-1.7,4.18
			c-1.2,1.18-2.62,1.77-4.26,1.77c-1.62,0-3.02-0.59-4.19-1.76c-1.17-1.17-1.76-2.57-1.76-4.2c0-1.63,0.59-3.04,1.76-4.23
			C49.44,0.58,50.83,0,52.48,0z M47.87,4.36c-0.18,0.5-0.27,1.04-0.27,1.6c0,1.32,0.48,2.46,1.45,3.42
			c0.96,0.96,2.11,1.44,3.44,1.44c1.33,0,2.49-0.49,3.47-1.46c0.33-0.32,0.6-0.67,0.81-1.04l-2.24-1c-0.15,0.76-0.83,1.27-1.64,1.33
			v0.92h-0.68V8.65c-0.67-0.01-1.31-0.28-1.81-0.71l0.82-0.83c0.4,0.37,0.79,0.54,1.33,0.54c0.35,0,0.74-0.14,0.74-0.59
			c0-0.16-0.06-0.27-0.16-0.36l-0.57-0.25l-0.71-0.31c-0.35-0.16-0.65-0.29-0.94-0.42L47.87,4.36z M52.5,1.07
			c-1.35,0-2.49,0.48-3.43,1.43c-0.25,0.26-0.48,0.52-0.66,0.8l2.28,1.01c0.21-0.63,0.81-1.01,1.53-1.06V2.34h0.68v0.92
			c0.47,0.02,0.99,0.15,1.5,0.55l-0.78,0.8c-0.29-0.2-0.65-0.35-1.02-0.35c-0.3,0-0.71,0.09-0.71,0.46c0,0.06,0.02,0.11,0.05,0.15
			l0.76,0.34l0.52,0.23c0.33,0.15,0.64,0.29,0.96,0.43l3.05,1.36c0.1-0.4,0.15-0.82,0.15-1.27c0-1.36-0.48-2.51-1.43-3.45
			C55,1.55,53.85,1.07,52.5,1.07z"/>
	</g>
</g>
</svg>
