<?xml version="1.0" encoding="utf-8"?>
<!-- Generator: Adobe Illustrator 24.0.0, SVG Export Plug-In . SVG Version: 6.00 Build 0)  -->
<svg version="1.1" id="Layer_1" xmlns="http://www.w3.org/2000/svg" xmlns:xlink="http://www.w3.org/1999/xlink" x="0px" y="0px"
	 viewBox="0 0 65.2 18.56" style="enable-background:new 0 0 65.2 18.56;" xml:space="preserve">
<g>
	<path id="path5708_8_" d="M13.71,2.61c1.55,1.55,2.33,3.45,2.33,5.7c0,2.25-0.76,4.13-2.29,5.64c-1.62,1.59-3.53,2.39-5.74,2.39
		c-2.18,0-4.06-0.79-5.64-2.37C0.79,12.4,0,10.51,0,8.31c0-2.2,0.79-4.1,2.37-5.7c1.54-1.55,3.42-2.33,5.64-2.33
		C10.26,0.28,12.16,1.06,13.71,2.61z M3.42,3.66C2.1,4.98,1.45,6.54,1.45,8.32c0,1.78,0.65,3.32,1.95,4.62
		c1.3,1.3,2.85,1.95,4.64,1.95c1.79,0,3.35-0.66,4.68-1.97c1.26-1.22,1.89-2.75,1.89-4.6c0-1.83-0.64-3.39-1.92-4.67
		c-1.28-1.28-2.83-1.92-4.65-1.92C6.21,1.73,4.67,2.37,3.42,3.66z M6.87,7.53c-0.2-0.44-0.5-0.66-0.9-0.66
		c-0.71,0-1.06,0.48-1.06,1.43c0,0.95,0.35,1.43,1.06,1.43c0.47,0,0.8-0.23,1-0.7l0.98,0.52c-0.47,0.83-1.17,1.25-2.11,1.25
		c-0.72,0-1.3-0.22-1.73-0.66C3.68,9.7,3.46,9.09,3.46,8.31c0-0.76,0.22-1.37,0.67-1.82c0.45-0.45,1.01-0.67,1.67-0.67
		c0.99,0,1.7,0.39,2.13,1.17L6.87,7.53z M11.49,7.53c-0.2-0.44-0.5-0.66-0.88-0.66c-0.72,0-1.08,0.48-1.08,1.43
		c0,0.95,0.36,1.43,1.08,1.43c0.47,0,0.8-0.23,0.98-0.7l1,0.52c-0.47,0.83-1.17,1.25-2.1,1.25c-0.72,0-1.3-0.22-1.73-0.66
		C8.32,9.7,8.11,9.09,8.11,8.31c0-0.76,0.22-1.37,0.66-1.82c0.44-0.45,1-0.67,1.68-0.67c0.99,0,1.69,0.39,2.12,1.17L11.49,7.53z"/>
	<path d="M28.73,16.63c0.15-0.07,0.27-0.17,0.35-0.28c0.08-0.11,0.12-0.26,0.12-0.43c0-0.16-0.03-0.29-0.08-0.4
		c-0.05-0.11-0.13-0.19-0.22-0.26c-0.1-0.07-0.21-0.11-0.34-0.14c-0.13-0.03-0.28-0.04-0.44-0.04h-1.6v3.4h1.65
		c0.15,0,0.3-0.02,0.45-0.06c0.14-0.04,0.27-0.1,0.39-0.18c0.11-0.08,0.2-0.18,0.27-0.31c0.07-0.13,0.1-0.27,0.1-0.45
		c0-0.21-0.05-0.39-0.16-0.55C29.1,16.8,28.94,16.69,28.73,16.63z M27.25,15.66h0.7c0.07,0,0.13,0.01,0.19,0.02
		c0.06,0.01,0.12,0.03,0.16,0.06c0.05,0.03,0.09,0.07,0.11,0.12c0.03,0.05,0.04,0.12,0.04,0.19c0,0.14-0.04,0.25-0.13,0.31
		c-0.09,0.06-0.2,0.09-0.33,0.09h-0.76V15.66z M28.57,17.67c-0.03,0.06-0.07,0.1-0.12,0.14c-0.05,0.03-0.11,0.06-0.18,0.07
		c-0.07,0.01-0.14,0.02-0.21,0.02h-0.8v-0.93h0.82c0.16,0,0.29,0.04,0.39,0.11c0.1,0.07,0.15,0.2,0.15,0.37
		C28.61,17.54,28.6,17.61,28.57,17.67z"/>
	<polygon points="31.13,16.42 30.33,15.08 29.49,15.08 30.74,17.16 30.74,18.48 31.49,18.48 31.49,17.18 32.75,15.08 31.92,15.08 	
		"/>
	<g>
		<g>
			<path d="M57.94,16.71c-0.11-0.07-0.22-0.13-0.34-0.16c-0.11-0.03-0.2-0.06-0.26-0.07c-0.21-0.05-0.38-0.1-0.52-0.13
				c-0.13-0.03-0.23-0.07-0.31-0.1c-0.07-0.03-0.12-0.07-0.15-0.11c-0.03-0.04-0.04-0.1-0.04-0.16c0-0.07,0.02-0.13,0.05-0.18
				c0.03-0.05,0.07-0.09,0.12-0.12c0.05-0.03,0.1-0.05,0.16-0.07c0.06-0.01,0.12-0.02,0.18-0.02c0.09,0,0.18,0.01,0.25,0.02
				c0.08,0.02,0.15,0.04,0.21,0.08c0.06,0.04,0.11,0.09,0.14,0.16c0.04,0.07,0.06,0.15,0.06,0.25h0.73c0-0.2-0.04-0.36-0.11-0.5
				c-0.07-0.14-0.18-0.25-0.3-0.34c-0.13-0.09-0.27-0.15-0.44-0.19C57.22,15.02,57.05,15,56.87,15c-0.15,0-0.3,0.02-0.46,0.06
				c-0.15,0.04-0.29,0.1-0.41,0.19c-0.12,0.09-0.22,0.19-0.29,0.32c-0.07,0.13-0.11,0.28-0.11,0.46c0,0.16,0.03,0.29,0.09,0.4
				c0.06,0.11,0.14,0.2,0.23,0.27c0.1,0.07,0.2,0.13,0.32,0.18c0.12,0.05,0.24,0.09,0.37,0.12c0.12,0.04,0.25,0.07,0.37,0.1
				c0.12,0.03,0.23,0.06,0.32,0.1c0.1,0.04,0.17,0.09,0.23,0.14c0.06,0.06,0.09,0.13,0.09,0.22c0,0.09-0.02,0.16-0.07,0.21
				c-0.04,0.06-0.1,0.1-0.17,0.13c-0.07,0.03-0.14,0.05-0.21,0.06c-0.08,0.01-0.15,0.02-0.21,0.02c-0.1,0-0.19-0.01-0.29-0.04
				c-0.09-0.02-0.17-0.06-0.24-0.11c-0.07-0.05-0.12-0.11-0.16-0.19c-0.04-0.08-0.06-0.18-0.06-0.29h-0.73
				c0,0.21,0.03,0.39,0.11,0.54c0.08,0.15,0.19,0.28,0.32,0.38c0.14,0.1,0.29,0.17,0.47,0.22c0.18,0.05,0.36,0.07,0.55,0.07
				c0.23,0,0.44-0.03,0.61-0.08c0.18-0.05,0.32-0.13,0.44-0.23c0.12-0.1,0.21-0.21,0.27-0.35c0.06-0.13,0.09-0.28,0.09-0.43
				c0-0.19-0.04-0.35-0.12-0.47C58.15,16.88,58.05,16.78,57.94,16.71z"/>
			<path d="M60.49,15.08h-0.77l-1.29,3.4h0.75l0.27-0.76h1.27l0.26,0.76h0.78L60.49,15.08z M59.65,17.16l0.44-1.25h0.01l0.43,1.25
				H59.65z"/>
		</g>
		<g>
			<path d="M63.47,1.73C62.31,0.58,60.9,0,59.23,0c-1.65,0-3.05,0.58-4.19,1.73c-1.17,1.19-1.76,2.6-1.76,4.23s0.59,3.03,1.76,4.2
				c1.17,1.17,2.57,1.76,4.19,1.76c1.64,0,3.06-0.59,4.26-1.77c1.13-1.12,1.7-2.52,1.7-4.18C65.2,4.29,64.62,2.88,63.47,1.73z
				 M62.72,9.36c-0.98,0.97-2.14,1.46-3.47,1.46s-2.48-0.48-3.44-1.44c-0.96-0.96-1.45-2.1-1.45-3.42c0-1.32,0.49-2.47,1.46-3.45
				c0.93-0.95,2.08-1.43,3.43-1.43s2.5,0.48,3.44,1.43c0.95,0.94,1.43,2.09,1.43,3.45C64.12,7.32,63.66,8.46,62.72,9.36z"/>
			<path d="M59.21,2.82c-1.32,0-2.38,0.8-2.61,2.3l-0.47,0l1.18,1.18l1.18-1.18l-0.44,0c0.12-0.82,0.68-1.05,1.34-1.05
				c0.89,0,1.37,0.67,1.37,1.93c0,1.2-0.55,1.99-1.4,1.99c-0.74,0-1.26-0.28-1.31-1.08h-1.5c0.21,1.54,1.35,2.33,2.63,2.33
				c1.86,0,3.09-1.39,3.09-3.19C62.27,4.19,61.11,2.82,59.21,2.82z"/>
		</g>
	</g>
	<g>
		<path style="fill-rule:evenodd;clip-rule:evenodd;" d="M29.83,3.77c0.46,0,0.83-0.37,0.83-0.83c0-0.46-0.37-0.83-0.83-0.83
			C29.37,2.11,29,2.48,29,2.94C29,3.4,29.37,3.77,29.83,3.77z"/>
		<path style="fill-rule:evenodd;clip-rule:evenodd;" d="M31.05,4.1h-2.44c-0.21,0-0.38,0.17-0.38,0.38v2.44h0.68V9.8h1.85V6.92
			h0.68V4.48C31.43,4.27,31.26,4.1,31.05,4.1z"/>
		<path style="fill-rule:evenodd;clip-rule:evenodd;" d="M34.06,1.73C32.9,0.58,31.49,0,29.82,0c-1.65,0-3.05,0.58-4.19,1.73
			c-1.17,1.19-1.76,2.6-1.76,4.23c0,1.63,0.59,3.03,1.76,4.2c1.17,1.17,2.57,1.76,4.19,1.76c1.64,0,3.06-0.59,4.26-1.77
			c1.13-1.12,1.7-2.52,1.7-4.18C35.78,4.29,35.21,2.88,34.06,1.73z M33.31,9.36c-0.98,0.97-2.14,1.46-3.47,1.46
			c-1.33,0-2.48-0.48-3.44-1.44c-0.96-0.96-1.45-2.1-1.45-3.42c0-1.32,0.49-2.47,1.46-3.45c0.93-0.95,2.08-1.43,3.43-1.43
			c1.35,0,2.5,0.48,3.44,1.43c0.95,0.94,1.43,2.09,1.43,3.45C34.71,7.32,34.24,8.46,33.31,9.36z"/>
	</g>
	<g>
		<g>
			<polygon points="43.83,17.36 43.82,17.36 42.4,15.08 41.66,15.08 41.66,18.48 42.36,18.48 42.36,16.2 42.37,16.2 43.78,18.48 
				44.53,18.48 44.53,15.08 43.83,15.08 			"/>
			<path d="M47.49,17.17c-0.03,0.23-0.11,0.41-0.24,0.55c-0.13,0.14-0.31,0.21-0.54,0.21c-0.17,0-0.31-0.03-0.43-0.1
				c-0.12-0.07-0.21-0.15-0.29-0.26c-0.07-0.11-0.13-0.23-0.16-0.36c-0.03-0.13-0.05-0.27-0.05-0.42c0-0.15,0.02-0.29,0.05-0.43
				c0.03-0.14,0.09-0.26,0.16-0.37c0.07-0.11,0.17-0.2,0.29-0.26c0.12-0.07,0.26-0.1,0.43-0.1c0.09,0,0.18,0.01,0.26,0.05
				c0.08,0.03,0.16,0.07,0.23,0.13s0.12,0.12,0.17,0.19c0.04,0.07,0.07,0.15,0.09,0.24h0.72c-0.02-0.2-0.08-0.37-0.16-0.52
				c-0.09-0.15-0.19-0.28-0.33-0.38c-0.13-0.1-0.28-0.18-0.45-0.24C47.08,15.02,46.9,15,46.71,15c-0.26,0-0.49,0.05-0.7,0.14
				c-0.21,0.09-0.38,0.22-0.53,0.38c-0.14,0.16-0.25,0.35-0.33,0.57c-0.08,0.22-0.11,0.45-0.11,0.71c0,0.25,0.04,0.48,0.11,0.69
				c0.08,0.21,0.19,0.4,0.33,0.56c0.14,0.16,0.32,0.28,0.53,0.37c0.21,0.09,0.44,0.14,0.7,0.14c0.21,0,0.4-0.03,0.58-0.1
				c0.17-0.06,0.33-0.16,0.46-0.28c0.13-0.12,0.24-0.27,0.31-0.44c0.08-0.17,0.13-0.36,0.15-0.58H47.49z"/>
		</g>
		<path id="path6365_1_" d="M44.53,0c1.67,0,3.08,0.58,4.23,1.73c1.15,1.15,1.73,2.56,1.73,4.23s-0.57,3.06-1.7,4.18
			c-1.2,1.18-2.62,1.77-4.26,1.77c-1.62,0-3.02-0.59-4.19-1.76c-1.17-1.17-1.76-2.57-1.76-4.2c0-1.63,0.59-3.04,1.76-4.23
			C41.48,0.58,42.88,0,44.53,0z M39.92,4.36c-0.18,0.5-0.27,1.04-0.27,1.6c0,1.32,0.48,2.46,1.45,3.42
			c0.96,0.96,2.11,1.44,3.44,1.44c1.33,0,2.49-0.49,3.47-1.46c0.33-0.32,0.6-0.67,0.81-1.04l-2.24-1c-0.15,0.76-0.83,1.27-1.64,1.33
			v0.92h-0.68V8.65c-0.67-0.01-1.31-0.28-1.81-0.71l0.82-0.83c0.4,0.37,0.79,0.54,1.33,0.54c0.35,0,0.74-0.14,0.74-0.59
			c0-0.16-0.06-0.27-0.16-0.36l-0.57-0.25L43.9,6.13c-0.35-0.16-0.65-0.29-0.94-0.42L39.92,4.36z M44.54,1.07
			c-1.35,0-2.49,0.48-3.43,1.43c-0.25,0.26-0.48,0.52-0.66,0.8l2.28,1.01c0.21-0.63,0.81-1.01,1.53-1.06V2.34h0.68v0.92
			c0.47,0.02,0.99,0.15,1.5,0.55l-0.78,0.8c-0.29-0.2-0.65-0.35-1.02-0.35c-0.3,0-0.71,0.09-0.71,0.46c0,0.06,0.02,0.11,0.05,0.15
			l0.76,0.34l0.52,0.23c0.33,0.15,0.64,0.29,0.96,0.43l3.05,1.36c0.1-0.4,0.15-0.82,0.15-1.27c0-1.36-0.48-2.51-1.43-3.45
			C47.04,1.55,45.89,1.07,44.54,1.07z"/>
	</g>
</g>
</svg>
