<?xml version="1.0" encoding="utf-8"?>
<!-- Generator: Adobe Illustrator 24.0.0, SVG Export Plug-In . SVG Version: 6.00 Build 0)  -->
<svg version="1.1" id="Layer_1" xmlns="http://www.w3.org/2000/svg" xmlns:xlink="http://www.w3.org/1999/xlink" x="0px" y="0px"
	 viewBox="0 0 58.51 18.61" style="enable-background:new 0 0 58.51 18.61;" xml:space="preserve">
<g>
	<g>
		<path id="path5708_2_" d="M13.75,2.62c1.56,1.56,2.34,3.46,2.34,5.72c0,2.26-0.77,4.14-2.3,5.66c-1.62,1.6-3.54,2.4-5.76,2.4
			c-2.19,0-4.07-0.79-5.66-2.38C0.79,12.43,0,10.54,0,8.34c0-2.2,0.79-4.11,2.38-5.72c1.54-1.56,3.43-2.34,5.66-2.34
			C10.29,0.28,12.2,1.06,13.75,2.62z M3.42,3.67C2.11,5,1.45,6.55,1.45,8.34c0,1.79,0.65,3.33,1.95,4.63
			c1.3,1.3,2.85,1.95,4.65,1.95c1.8,0,3.36-0.66,4.69-1.97c1.26-1.22,1.89-2.76,1.89-4.61c0-1.84-0.64-3.4-1.92-4.68
			c-1.28-1.28-2.84-1.92-4.66-1.92C6.23,1.73,4.69,2.38,3.42,3.67z M6.89,7.55c-0.2-0.44-0.5-0.66-0.9-0.66
			c-0.71,0-1.06,0.48-1.06,1.43c0,0.96,0.35,1.43,1.06,1.43c0.47,0,0.8-0.23,1-0.7l0.98,0.52c-0.47,0.83-1.17,1.25-2.11,1.25
			c-0.72,0-1.3-0.22-1.74-0.67C3.69,9.73,3.47,9.12,3.47,8.34c0-0.77,0.22-1.37,0.67-1.83c0.45-0.45,1.01-0.68,1.68-0.68
			c0.99,0,1.7,0.39,2.13,1.17L6.89,7.55z M11.52,7.55c-0.2-0.44-0.5-0.66-0.89-0.66c-0.72,0-1.09,0.48-1.09,1.43
			c0,0.96,0.36,1.43,1.09,1.43c0.47,0,0.8-0.23,0.99-0.7l1.01,0.52c-0.47,0.83-1.17,1.25-2.11,1.25c-0.72,0-1.3-0.22-1.74-0.67
			C8.35,9.73,8.13,9.12,8.13,8.34c0-0.77,0.22-1.37,0.66-1.83c0.44-0.45,1-0.68,1.69-0.68c0.99,0,1.7,0.39,2.13,1.17L11.52,7.55z"/>
		<g>
			<path d="M51.38,16.75c-0.11-0.07-0.22-0.13-0.34-0.16c-0.11-0.03-0.2-0.06-0.26-0.07c-0.21-0.05-0.39-0.1-0.52-0.13
				c-0.13-0.03-0.24-0.07-0.31-0.11c-0.07-0.03-0.12-0.07-0.15-0.11c-0.03-0.04-0.04-0.1-0.04-0.16c0-0.07,0.02-0.13,0.05-0.18
				c0.03-0.05,0.07-0.09,0.12-0.12c0.05-0.03,0.1-0.05,0.16-0.07c0.06-0.01,0.12-0.02,0.18-0.02c0.09,0,0.18,0.01,0.25,0.02
				c0.08,0.02,0.15,0.04,0.21,0.08c0.06,0.04,0.11,0.09,0.14,0.16c0.04,0.07,0.06,0.15,0.06,0.25h0.73c0-0.2-0.04-0.37-0.11-0.5
				c-0.07-0.14-0.18-0.25-0.3-0.34c-0.13-0.09-0.27-0.15-0.44-0.19c-0.16-0.04-0.33-0.06-0.51-0.06c-0.15,0-0.31,0.02-0.46,0.06
				c-0.15,0.04-0.29,0.11-0.41,0.19c-0.12,0.09-0.22,0.19-0.29,0.32c-0.07,0.13-0.11,0.28-0.11,0.46c0,0.16,0.03,0.29,0.09,0.4
				c0.06,0.11,0.14,0.2,0.23,0.27c0.1,0.07,0.2,0.13,0.32,0.18c0.12,0.05,0.24,0.09,0.37,0.12c0.12,0.04,0.25,0.07,0.37,0.1
				c0.12,0.03,0.23,0.06,0.32,0.1c0.1,0.04,0.17,0.09,0.23,0.14c0.06,0.06,0.09,0.13,0.09,0.22c0,0.09-0.02,0.16-0.07,0.21
				c-0.04,0.06-0.1,0.1-0.17,0.13c-0.07,0.03-0.14,0.05-0.21,0.06c-0.08,0.01-0.15,0.02-0.21,0.02c-0.1,0-0.19-0.01-0.29-0.04
				c-0.09-0.02-0.17-0.06-0.24-0.11c-0.07-0.05-0.12-0.11-0.16-0.19c-0.04-0.08-0.06-0.18-0.06-0.29h-0.73
				c0,0.21,0.03,0.39,0.11,0.54c0.08,0.15,0.19,0.28,0.32,0.38c0.14,0.1,0.29,0.17,0.47,0.22c0.18,0.05,0.36,0.07,0.55,0.07
				c0.23,0,0.44-0.03,0.61-0.08c0.18-0.05,0.32-0.13,0.44-0.23c0.12-0.1,0.21-0.21,0.27-0.35c0.06-0.13,0.09-0.28,0.09-0.43
				c0-0.19-0.04-0.35-0.12-0.47C51.59,16.92,51.5,16.83,51.38,16.75z"/>
			<path d="M53.94,15.12h-0.77l-1.29,3.41h0.75l0.27-0.76h1.28l0.26,0.76h0.78L53.94,15.12z M53.1,17.21l0.44-1.25h0.01l0.43,1.25
				H53.1z"/>
			<path d="M30.81,16.68c0.15-0.07,0.27-0.17,0.35-0.28c0.08-0.11,0.12-0.26,0.12-0.43c0-0.16-0.03-0.29-0.08-0.4
				c-0.05-0.11-0.13-0.19-0.22-0.26c-0.1-0.07-0.21-0.11-0.34-0.14c-0.13-0.03-0.28-0.04-0.44-0.04h-1.61v3.41h1.66
				c0.15,0,0.3-0.02,0.45-0.06c0.14-0.04,0.27-0.1,0.39-0.18c0.11-0.08,0.2-0.18,0.27-0.31c0.07-0.13,0.1-0.27,0.1-0.45
				c0-0.21-0.05-0.4-0.16-0.55C31.18,16.84,31.02,16.74,30.81,16.68z M29.33,15.7h0.7c0.07,0,0.13,0.01,0.19,0.02
				c0.06,0.01,0.12,0.03,0.16,0.06c0.05,0.03,0.09,0.07,0.11,0.12c0.03,0.05,0.04,0.12,0.04,0.2c0,0.14-0.04,0.25-0.13,0.31
				c-0.09,0.06-0.2,0.1-0.33,0.1h-0.76V15.7z M30.64,17.72c-0.03,0.06-0.07,0.1-0.12,0.14c-0.05,0.03-0.11,0.06-0.18,0.07
				c-0.07,0.01-0.14,0.02-0.21,0.02h-0.8v-0.94h0.82c0.16,0,0.29,0.04,0.39,0.11c0.1,0.07,0.15,0.2,0.15,0.37
				C30.69,17.59,30.67,17.66,30.64,17.72z"/>
			<polygon points="33.21,16.47 32.41,15.12 31.57,15.12 32.83,17.2 32.83,18.53 33.58,18.53 33.58,17.22 34.84,15.12 34.01,15.12 
							"/>
		</g>
		<g>
			<path d="M56.78,1.73C55.62,0.58,54.21,0,52.54,0c-1.65,0-3.05,0.58-4.2,1.73c-1.18,1.19-1.76,2.61-1.76,4.24s0.59,3.04,1.76,4.21
				c1.18,1.17,2.58,1.76,4.2,1.76c1.64,0,3.07-0.59,4.28-1.78c1.14-1.12,1.7-2.52,1.7-4.19C58.51,4.3,57.94,2.89,56.78,1.73z
				 M56.03,9.39c-0.99,0.98-2.15,1.46-3.48,1.46s-2.49-0.48-3.45-1.45c-0.97-0.97-1.45-2.11-1.45-3.43c0-1.32,0.49-2.48,1.46-3.46
				c0.94-0.96,2.08-1.43,3.44-1.43S55.06,1.55,56,2.51c0.96,0.95,1.43,2.1,1.43,3.46C57.44,7.34,56.97,8.48,56.03,9.39z"/>
			<path d="M52.51,2.82c-1.33,0-2.38,0.8-2.62,2.31l-0.47,0l1.18,1.18l1.18-1.18l-0.44,0c0.12-0.82,0.69-1.06,1.34-1.06
				c0.89,0,1.37,0.67,1.37,1.93c0,1.21-0.55,1.99-1.4,1.99c-0.74,0-1.27-0.28-1.31-1.09h-1.5c0.21,1.55,1.36,2.34,2.64,2.34
				c1.86,0,3.1-1.4,3.1-3.2C55.58,4.21,54.42,2.82,52.51,2.82z"/>
		</g>
		<g>
			<path style="fill-rule:evenodd;clip-rule:evenodd;" d="M31.91,3.79c0.46,0,0.84-0.37,0.84-0.84c0-0.46-0.37-0.84-0.84-0.84
				s-0.84,0.37-0.84,0.84C31.08,3.41,31.45,3.79,31.91,3.79z"/>
			<path style="fill-rule:evenodd;clip-rule:evenodd;" d="M33.13,4.11h-2.44c-0.21,0-0.39,0.17-0.39,0.39v2.44h0.68v2.89h1.85V6.94
				h0.68V4.49C33.52,4.28,33.35,4.11,33.13,4.11z"/>
			<path style="fill-rule:evenodd;clip-rule:evenodd;" d="M36.15,1.73C34.99,0.58,33.58,0,31.9,0c-1.65,0-3.05,0.58-4.2,1.73
				c-1.18,1.19-1.76,2.61-1.76,4.24c0,1.63,0.59,3.04,1.76,4.21c1.18,1.17,2.58,1.76,4.2,1.76c1.64,0,3.07-0.59,4.28-1.78
				c1.14-1.12,1.7-2.52,1.7-4.19C37.88,4.3,37.31,2.89,36.15,1.73z M35.4,9.39c-0.99,0.98-2.15,1.46-3.48,1.46
				c-1.34,0-2.49-0.48-3.45-1.45c-0.97-0.97-1.45-2.11-1.45-3.43c0-1.32,0.49-2.48,1.46-3.46c0.94-0.96,2.08-1.43,3.44-1.43
				c1.36,0,2.51,0.48,3.45,1.43c0.96,0.95,1.44,2.1,1.44,3.46C36.81,7.34,36.34,8.48,35.4,9.39z"/>
		</g>
	</g>
</g>
</svg>
