<?xml version="1.0" encoding="utf-8"?>
<!-- Generator: Adobe Illustrator 24.0.0, SVG Export Plug-In . SVG Version: 6.00 Build 0)  -->
<svg version="1.1" id="Layer_1" xmlns="http://www.w3.org/2000/svg" xmlns:xlink="http://www.w3.org/1999/xlink" x="0px" y="0px"
	 viewBox="0 0 47.32 18.53" style="enable-background:new 0 0 47.32 18.53;" xml:space="preserve">
<g>
	<g>
		<path id="path5708_1_" d="M13.75,2.62c1.56,1.56,2.34,3.46,2.34,5.72c0,2.26-0.77,4.14-2.3,5.66c-1.62,1.6-3.54,2.4-5.76,2.4
			c-2.19,0-4.07-0.79-5.66-2.38C0.79,12.43,0,10.54,0,8.34c0-2.2,0.79-4.11,2.38-5.72c1.54-1.56,3.43-2.34,5.66-2.34
			C10.29,0.28,12.2,1.06,13.75,2.62z M3.42,3.67C2.11,5,1.45,6.55,1.45,8.34c0,1.79,0.65,3.33,1.95,4.63
			c1.3,1.3,2.85,1.95,4.65,1.95c1.8,0,3.36-0.66,4.69-1.97c1.26-1.22,1.89-2.76,1.89-4.61c0-1.84-0.64-3.4-1.92-4.68
			c-1.28-1.28-2.84-1.92-4.66-1.92C6.23,1.73,4.69,2.38,3.42,3.67z M6.89,7.55c-0.2-0.44-0.5-0.66-0.9-0.66
			c-0.71,0-1.06,0.48-1.06,1.43c0,0.96,0.35,1.43,1.06,1.43c0.47,0,0.8-0.23,1-0.7l0.98,0.52c-0.47,0.83-1.17,1.25-2.11,1.25
			c-0.72,0-1.3-0.22-1.74-0.67C3.69,9.73,3.47,9.12,3.47,8.34c0-0.77,0.22-1.37,0.67-1.83c0.45-0.45,1.01-0.68,1.68-0.68
			c0.99,0,1.7,0.39,2.13,1.17L6.89,7.55z M11.52,7.55c-0.2-0.44-0.5-0.66-0.89-0.66c-0.72,0-1.09,0.48-1.09,1.43
			c0,0.96,0.36,1.43,1.09,1.43c0.47,0,0.8-0.23,0.99-0.7l1.01,0.52c-0.47,0.83-1.17,1.25-2.11,1.25c-0.72,0-1.3-0.22-1.74-0.67
			C8.35,9.73,8.13,9.12,8.13,8.34c0-0.77,0.22-1.37,0.66-1.83c0.44-0.45,1-0.68,1.69-0.68c0.99,0,1.7,0.39,2.13,1.17L11.52,7.55z"/>
		<g>
			<path d="M40.25,16.68c0.15-0.07,0.27-0.17,0.35-0.28c0.08-0.11,0.12-0.26,0.12-0.43c0-0.16-0.03-0.29-0.08-0.4
				c-0.05-0.11-0.13-0.19-0.22-0.26c-0.1-0.07-0.21-0.11-0.34-0.14c-0.13-0.03-0.28-0.04-0.44-0.04h-1.61v3.41h1.66
				c0.15,0,0.3-0.02,0.45-0.06c0.14-0.04,0.27-0.1,0.39-0.18c0.11-0.08,0.2-0.18,0.27-0.31c0.07-0.13,0.1-0.27,0.1-0.45
				c0-0.21-0.05-0.4-0.16-0.55C40.62,16.84,40.46,16.74,40.25,16.68z M38.77,15.7h0.7c0.07,0,0.13,0.01,0.19,0.02
				c0.06,0.01,0.12,0.03,0.16,0.06c0.05,0.03,0.09,0.07,0.11,0.12c0.03,0.05,0.04,0.12,0.04,0.2c0,0.14-0.04,0.25-0.13,0.31
				c-0.09,0.06-0.2,0.1-0.33,0.1h-0.76V15.7z M40.08,17.72c-0.03,0.06-0.07,0.1-0.12,0.14c-0.05,0.03-0.11,0.06-0.18,0.07
				c-0.07,0.01-0.14,0.02-0.21,0.02h-0.8v-0.94h0.82c0.16,0,0.29,0.04,0.39,0.11c0.1,0.07,0.15,0.2,0.15,0.37
				C40.13,17.59,40.11,17.66,40.08,17.72z"/>
			<polygon points="42.65,16.47 41.85,15.12 41.01,15.12 42.26,17.2 42.26,18.53 43.01,18.53 43.01,17.22 44.28,15.12 43.44,15.12 
							"/>
		</g>
		<g>
			<path style="fill-rule:evenodd;clip-rule:evenodd;" d="M41.35,3.79c0.46,0,0.84-0.37,0.84-0.84c0-0.46-0.37-0.84-0.84-0.84
				s-0.84,0.37-0.84,0.84C40.51,3.41,40.89,3.79,41.35,3.79z"/>
			<path style="fill-rule:evenodd;clip-rule:evenodd;" d="M42.57,4.11h-2.44c-0.21,0-0.39,0.17-0.39,0.39v2.44h0.68v2.89h1.85V6.94
				h0.68V4.49C42.95,4.28,42.78,4.11,42.57,4.11z"/>
			<path style="fill-rule:evenodd;clip-rule:evenodd;" d="M45.59,1.73C44.43,0.58,43.01,0,41.34,0c-1.65,0-3.05,0.58-4.2,1.73
				c-1.18,1.19-1.76,2.61-1.76,4.24c0,1.63,0.59,3.04,1.76,4.21c1.18,1.17,2.58,1.76,4.2,1.76c1.64,0,3.07-0.59,4.28-1.78
				c1.14-1.12,1.7-2.52,1.7-4.19C47.32,4.3,46.74,2.89,45.59,1.73z M44.84,9.39c-0.99,0.98-2.15,1.46-3.48,1.46
				c-1.34,0-2.49-0.48-3.45-1.45c-0.97-0.97-1.45-2.11-1.45-3.43c0-1.32,0.49-2.48,1.46-3.46c0.94-0.96,2.08-1.43,3.44-1.43
				c1.36,0,2.51,0.48,3.45,1.43c0.96,0.95,1.44,2.1,1.44,3.46C46.24,7.34,45.78,8.48,44.84,9.39z"/>
		</g>
	</g>
</g>
</svg>
