<?xml version="1.0" encoding="utf-8"?>
<!-- Generator: Adobe Illustrator 24.0.0, SVG Export Plug-In . SVG Version: 6.00 Build 0)  -->
<svg version="1.1" id="Layer_1" xmlns="http://www.w3.org/2000/svg" xmlns:xlink="http://www.w3.org/1999/xlink" x="0px" y="0px"
	 viewBox="0 0 46.55 16.12" style="enable-background:new 0 0 46.55 16.12;" xml:space="preserve">
<g>
	<path d="M22.73,2.85c0.27,0,0.5,0.04,0.69,0.12c0.19,0.08,0.34,0.18,0.46,0.31c0.12,0.13,0.2,0.28,0.26,0.44
		c0.05,0.17,0.08,0.34,0.08,0.52c0,0.17-0.03,0.34-0.08,0.51C24.09,4.92,24,5.07,23.88,5.2c-0.12,0.13-0.27,0.23-0.46,0.31
		C23.23,5.59,23,5.63,22.73,5.63h-0.99v1.55h-0.95V2.85H22.73z M22.47,4.89c0.11,0,0.21-0.01,0.31-0.02
		c0.1-0.02,0.19-0.05,0.27-0.09s0.14-0.11,0.18-0.2c0.05-0.08,0.07-0.2,0.07-0.33c0-0.14-0.02-0.25-0.07-0.33
		c-0.05-0.08-0.11-0.15-0.18-0.2c-0.08-0.05-0.16-0.08-0.27-0.09c-0.1-0.02-0.2-0.02-0.31-0.02h-0.73v1.3L22.47,4.89L22.47,4.89z"/>
	<path d="M28.22,6.85c-0.33,0.29-0.78,0.43-1.35,0.43c-0.58,0-1.03-0.14-1.35-0.42c-0.32-0.28-0.48-0.72-0.48-1.31V2.85h0.95v2.69
		c0,0.12,0.01,0.23,0.03,0.35c0.02,0.11,0.06,0.21,0.13,0.3c0.06,0.09,0.15,0.16,0.27,0.21c0.11,0.06,0.27,0.08,0.46,0.08
		c0.34,0,0.57-0.08,0.7-0.23c0.13-0.15,0.19-0.39,0.19-0.71V2.85h0.95v2.69C28.71,6.13,28.54,6.56,28.22,6.85z"/>
	<path d="M31.86,2.85c0.21,0,0.39,0.02,0.56,0.06c0.17,0.04,0.31,0.1,0.43,0.18c0.12,0.08,0.21,0.19,0.28,0.33
		c0.07,0.14,0.1,0.31,0.1,0.51c0,0.22-0.05,0.4-0.15,0.54c-0.1,0.15-0.24,0.27-0.44,0.36c0.26,0.08,0.46,0.21,0.59,0.4
		c0.13,0.19,0.2,0.42,0.2,0.69c0,0.22-0.04,0.41-0.13,0.57c-0.08,0.16-0.2,0.29-0.34,0.39c-0.14,0.1-0.3,0.18-0.49,0.22
		c-0.18,0.05-0.37,0.07-0.56,0.07h-2.09V2.85H31.86z M31.74,4.6c0.17,0,0.31-0.04,0.42-0.12c0.11-0.08,0.16-0.21,0.16-0.39
		c0-0.1-0.02-0.18-0.05-0.25c-0.04-0.06-0.08-0.11-0.14-0.15c-0.06-0.04-0.13-0.06-0.21-0.07c-0.08-0.02-0.16-0.02-0.24-0.02h-0.89
		V4.6L31.74,4.6L31.74,4.6L31.74,4.6z M31.79,6.44c0.09,0,0.18-0.01,0.26-0.03s0.16-0.05,0.22-0.09c0.06-0.04,0.11-0.1,0.15-0.17
		c0.04-0.07,0.06-0.16,0.06-0.28c0-0.22-0.06-0.38-0.19-0.48c-0.12-0.09-0.29-0.14-0.49-0.14h-1.03v1.19L31.79,6.44L31.79,6.44
		L31.79,6.44z"/>
	<path d="M35.33,2.85v3.53h2.1v0.8h-3.04V2.85H35.33z"/>
	<path d="M39.17,2.85v4.33h-0.95V2.85H39.17z"/>
	<path d="M43.07,4.01c-0.06-0.09-0.13-0.17-0.21-0.24c-0.08-0.07-0.18-0.12-0.29-0.16c-0.11-0.04-0.22-0.06-0.33-0.06
		c-0.21,0-0.39,0.04-0.54,0.13c-0.15,0.08-0.27,0.19-0.36,0.33c-0.09,0.14-0.16,0.3-0.2,0.48c-0.04,0.18-0.06,0.36-0.06,0.55
		c0,0.18,0.02,0.36,0.06,0.53c0.04,0.17,0.11,0.33,0.2,0.46c0.09,0.14,0.21,0.25,0.36,0.33c0.15,0.08,0.33,0.12,0.54,0.12
		c0.29,0,0.51-0.09,0.68-0.27c0.16-0.18,0.26-0.41,0.3-0.7h0.92c-0.02,0.27-0.09,0.52-0.19,0.73c-0.1,0.22-0.23,0.4-0.4,0.56
		c-0.16,0.15-0.36,0.27-0.58,0.35c-0.22,0.08-0.46,0.12-0.73,0.12c-0.33,0-0.63-0.06-0.89-0.17c-0.26-0.12-0.49-0.27-0.67-0.48
		c-0.18-0.2-0.32-0.44-0.42-0.71c-0.1-0.27-0.14-0.57-0.14-0.88c0-0.32,0.05-0.62,0.14-0.9c0.1-0.28,0.24-0.52,0.42-0.72
		c0.18-0.21,0.4-0.37,0.67-0.48c0.26-0.12,0.56-0.18,0.89-0.18c0.24,0,0.46,0.03,0.67,0.1c0.21,0.07,0.4,0.17,0.57,0.3
		c0.17,0.13,0.3,0.29,0.41,0.49c0.11,0.19,0.18,0.42,0.21,0.67h-0.92C43.16,4.2,43.12,4.09,43.07,4.01z"/>
	<path d="M22.65,8.91c0.28,0,0.54,0.04,0.77,0.13c0.24,0.09,0.45,0.22,0.62,0.4c0.17,0.18,0.31,0.4,0.41,0.67
		c0.1,0.27,0.15,0.58,0.15,0.94c0,0.32-0.04,0.61-0.12,0.87c-0.08,0.27-0.2,0.5-0.36,0.69c-0.16,0.19-0.37,0.34-0.61,0.46
		c-0.24,0.11-0.53,0.17-0.86,0.17h-1.85V8.91L22.65,8.91z M22.58,12.44c0.14,0,0.27-0.02,0.4-0.07c0.13-0.04,0.24-0.12,0.34-0.22
		c0.1-0.1,0.18-0.24,0.24-0.4c0.06-0.16,0.09-0.37,0.09-0.61c0-0.22-0.02-0.41-0.06-0.59c-0.04-0.18-0.11-0.33-0.21-0.45
		c-0.1-0.13-0.22-0.22-0.38-0.29c-0.16-0.07-0.35-0.1-0.59-0.1h-0.67v2.73H22.58z"/>
	<path d="M25.51,10.19c0.1-0.28,0.24-0.52,0.41-0.72c0.18-0.21,0.4-0.37,0.67-0.49c0.26-0.12,0.56-0.18,0.89-0.18
		c0.33,0,0.63,0.06,0.89,0.18c0.26,0.12,0.48,0.28,0.66,0.49c0.18,0.21,0.32,0.45,0.41,0.72c0.1,0.28,0.15,0.58,0.15,0.9
		c0,0.31-0.05,0.61-0.15,0.88c-0.1,0.27-0.24,0.51-0.41,0.71c-0.18,0.2-0.4,0.36-0.66,0.48c-0.26,0.11-0.56,0.17-0.89,0.17
		c-0.33,0-0.62-0.06-0.89-0.17c-0.26-0.12-0.48-0.27-0.67-0.48c-0.18-0.2-0.32-0.44-0.41-0.71c-0.1-0.27-0.14-0.57-0.14-0.88
		C25.37,10.77,25.42,10.47,25.51,10.19z M26.38,11.62c0.04,0.17,0.11,0.33,0.2,0.47c0.09,0.14,0.21,0.25,0.36,0.33
		c0.15,0.08,0.33,0.13,0.54,0.13c0.21,0,0.39-0.04,0.54-0.13c0.15-0.08,0.27-0.19,0.36-0.33c0.09-0.14,0.16-0.29,0.2-0.47
		c0.04-0.17,0.06-0.35,0.06-0.53c0-0.19-0.02-0.37-0.06-0.55c-0.04-0.18-0.11-0.34-0.2-0.48c-0.09-0.14-0.21-0.25-0.36-0.33
		c-0.15-0.08-0.33-0.13-0.54-0.13c-0.21,0-0.39,0.04-0.54,0.13c-0.15,0.08-0.27,0.19-0.36,0.33c-0.09,0.14-0.16,0.3-0.2,0.48
		c-0.04,0.18-0.06,0.36-0.06,0.55C26.31,11.28,26.34,11.45,26.38,11.62z"/>
	<path d="M31.87,8.91l1.01,2.98h0.01l0.95-2.98h1.33v4.33h-0.89v-3.07h-0.01l-1.05,3.07h-0.73l-1.05-3.04h-0.01v3.04h-0.88V8.91
		H31.87z"/>
	<path d="M38.49,8.91l1.61,4.33h-0.98l-0.33-0.96h-1.61l-0.34,0.96H35.9l1.63-4.33L38.49,8.91z M38.55,11.57L38,9.98h-0.01
		l-0.56,1.59H38.55z"/>
	<path d="M41.76,8.91v4.33h-0.95V8.91H41.76z"/>
	<path d="M43.86,8.91l1.8,2.9h0.01v-2.9h0.89v4.33H45.6l-1.79-2.9H43.8v2.9h-0.89V8.91L43.86,8.91z"/>
	<path id="text2809_1_" d="M8.01,3.42c-2.64,0-3.31,2.51-3.31,4.64c0,2.13,0.66,4.64,3.31,4.64s3.31-2.51,3.31-4.64
		C11.32,5.93,10.65,3.42,8.01,3.42z M8.01,5.17c0.11,0,0.21,0.02,0.3,0.04C8.5,5.37,8.59,5.6,8.41,5.92L6.65,9.18
		C6.59,8.77,6.58,8.36,6.58,8.06C6.58,7.12,6.65,5.17,8.01,5.17z M9.33,6.67c0.09,0.5,0.11,1.02,0.11,1.39
		c0,0.94-0.06,2.89-1.42,2.89c-0.11,0-0.21-0.01-0.3-0.03c-0.02-0.01-0.03-0.01-0.05-0.02c-0.03-0.01-0.06-0.02-0.08-0.03
		c-0.3-0.13-0.49-0.36-0.22-0.78L9.33,6.67z"/>
	<path id="path2815_1_" d="M7.99,0C5.77,0,3.9,0.78,2.37,2.34C1.6,3.12,1.01,4.01,0.6,4.99C0.2,5.97,0,6.99,0,8.06
		c0,1.07,0.2,2.1,0.6,3.07s0.98,1.84,1.74,2.62c0.77,0.77,1.64,1.36,2.6,1.77c0.97,0.4,1.99,0.6,3.04,0.6
		c1.06,0,2.09-0.21,3.08-0.62c0.99-0.41,1.88-1.01,2.66-1.78c0.75-0.74,1.32-1.59,1.7-2.55c0.39-0.97,0.58-2.01,0.58-3.11
		c0-1.09-0.19-2.13-0.58-3.1c-0.39-0.98-0.96-1.84-1.72-2.6C12.14,0.78,10.23,0,7.99,0z M8.02,1.45c1.81,0,3.36,0.65,4.64,1.94
		c0.62,0.62,1.09,1.34,1.42,2.13c0.32,0.8,0.49,1.64,0.49,2.53c0,1.85-0.63,3.39-1.88,4.62c-0.65,0.63-1.38,1.12-2.19,1.46
		c-0.8,0.33-1.63,0.5-2.48,0.5c-0.87,0-1.7-0.16-2.49-0.49c-0.79-0.33-1.5-0.82-2.13-1.44c-0.63-0.63-1.11-1.35-1.46-2.15
		c-0.33-0.81-0.51-1.64-0.51-2.5c0-0.87,0.17-1.71,0.51-2.51C2.29,4.75,2.77,4.02,3.4,3.38C4.65,2.09,6.19,1.45,8.02,1.45z"/>
</g>
</svg>
